<?xml version="1.0" encoding="UTF-8"?>
<svg version="1.1" xmlns="http://www.w3.org/2000/svg" width="512" height="512">
<path d="M0 0 C16.15056786 14.48956854 15.30808612 42.12685756 17.93415868 62.15623569 C18.44425415 66.03935262 18.95942445 69.92179694 19.47389221 73.80433655 C20.47789981 81.38766941 21.47716023 88.97162028 22.4745762 96.55582266 C23.28544953 102.72115957 24.09789392 108.88628754 24.91143227 115.05127335 C25.02759097 115.93155851 25.14374967 116.81184368 25.26342833 117.71880416 C25.49945657 119.50748545 25.73548598 121.29616659 25.97151653 123.08484758 C28.17914684 139.81643805 30.38109777 156.5487723 32.58129332 173.28134181 C34.5927774 188.577383 36.61140649 203.87247132 38.63338991 219.16712783 C40.71311762 234.89906738 42.78804615 250.63163305 44.85778314 266.36489022 C46.01846534 275.18725232 47.18102977 284.00935639 48.34862328 292.83080673 C49.34166217 300.33386326 50.33015638 307.83750151 51.31282707 315.34192328 C51.81388377 319.16741603 52.31699161 322.9926084 52.8257637 326.81708336 C53.3778368 330.96755589 53.91981928 335.11928481 54.46086121 339.27120972 C54.62223468 340.47237989 54.78360814 341.67355007 54.94987172 342.91111934 C56.76399764 356.99244074 56.85584185 369.83576909 48.82421875 382.16015625 C40.87483365 392.45270071 30.43526108 397.70455559 17.72583008 399.40917969 C16.67349339 399.5640321 15.62115671 399.71888451 14.53693104 399.87842941 C11.42128241 400.32942521 8.30367151 400.76173531 5.18407869 401.18447685 C2.90481671 401.4942785 0.6263028 401.80920357 -1.65213394 402.12501526 C-14.03652583 403.83867041 -26.42865208 405.49256352 -38.82302117 407.13229465 C-42.04542786 407.55863052 -45.26774446 407.98564166 -48.49004173 408.41280365 C-58.62044488 409.7553508 -68.75125327 411.09478393 -78.88261253 412.43009686 C-90.49248601 413.96036417 -102.10084847 415.50151046 -113.70806247 417.05181813 C-122.74794113 418.25850874 -131.78911753 419.45513813 -140.83130711 420.64438701 C-146.20359575 421.35119867 -151.57526073 422.06210471 -156.94558144 422.78372955 C-161.99310327 423.46172452 -167.04214365 424.12706158 -172.09253883 424.78329849 C-173.9279105 425.02388973 -175.76272697 425.26876866 -177.59685898 425.5186348 C-187.00809822 426.79806137 -196.29440572 427.68927041 -205.79997253 427.75067139 C-207.03100203 427.76350658 -207.03100203 427.76350658 -208.28690082 427.77660108 C-219.14422304 427.69846528 -228.28686056 423.06612362 -235.96484375 415.4765625 C-245.31800657 404.48249392 -246.76901361 392.36910077 -248.54785156 378.56689453 C-248.79070229 376.73443956 -249.0343448 374.90208937 -249.27870941 373.06983566 C-249.94485331 368.05816838 -250.60001689 363.0451186 -251.25337124 358.03177023 C-251.95764901 352.64281494 -252.6721443 347.25521406 -253.38555908 341.86746216 C-254.61357028 332.58407536 -255.83555057 323.29991101 -257.05395508 314.01525879 C-258.96361845 299.46643717 -260.89169342 284.92008296 -262.82226562 270.37402344 C-265.79668843 247.95561402 -268.75944084 225.53568562 -271.71389008 203.11463547 C-272.04525577 200.600023 -272.37662836 198.08541144 -272.70800781 195.57080078 C-272.95457052 193.69978789 -272.95457052 193.69978789 -273.20611429 191.79097676 C-274.56907957 181.45114618 -275.93656908 171.11191691 -277.30475116 160.77277553 C-278.64935726 150.60975316 -279.9902919 140.44625046 -281.32848096 130.28238118 C-282.11682781 124.2953909 -282.90669294 118.30861115 -283.70058441 112.32235336 C-284.43709402 106.76819957 -285.16902797 101.21346154 -285.89750671 95.6582489 C-286.16310446 93.63887393 -286.43031308 91.61971001 -286.69933319 89.60078812 C-292.03980533 49.49397582 -292.03980533 49.49397582 -281.91015625 34.9140625 C-274.65510591 25.82339702 -265.8841254 20.91123751 -254.45191956 19.01786804 C-253.34546045 18.82917161 -253.34546045 18.82917161 -252.21664864 18.63666314 C-242.71331502 17.05158307 -233.16105978 15.81547321 -223.60913086 14.56567383 C-221.52106774 14.28967709 -219.43304604 14.01336687 -217.34506226 13.73677063 C-211.72840525 12.9937596 -206.11113814 12.25546568 -200.49370265 11.5183661 C-195.79116178 10.90089104 -191.08892505 10.28111688 -186.38668257 9.66137427 C-175.2977071 8.19993719 -164.20822381 6.7424006 -153.1184082 5.28735352 C-141.69142281 3.78799935 -130.26531534 2.28208532 -118.83961481 0.77297384 C-109.00362626 -0.52593788 -99.16711594 -1.82084302 -89.33017546 -3.11252576 C-83.46574855 -3.88261811 -77.60152899 -4.65420935 -71.73780632 -5.42964745 C-66.23321211 -6.15741284 -60.7279824 -6.88016489 -55.22222519 -7.59907722 C-53.20479959 -7.86334713 -51.18760315 -8.1293734 -49.17066002 -8.39730072 C-46.41397268 -8.7632076 -43.6565211 -9.12270577 -40.89878845 -9.4806366 C-40.10491523 -9.58753679 -39.31104201 -9.69443698 -38.49311203 -9.80457658 C-23.86733116 -11.677005 -11.78768772 -9.13955907 0 0 Z " fill="#FFFFFF" transform="translate(309.96484375,84.5234375)"/>
<path d="M0 0 C0.86240769 0.00956685 1.72481539 0.0191337 2.61335665 0.02899045 C12.59911702 0.23874525 22.42344486 1.52194664 32.30796814 2.86787415 C34.3783255 3.13995804 36.44883121 3.41091501 38.51947021 3.68084717 C44.07844598 4.40887876 49.63517054 5.15288985 55.19155765 5.90038896 C61.0378956 6.68439839 66.88607099 7.45447248 72.73400879 8.22644043 C82.54175436 9.52320664 92.34813081 10.8299339 102.15367126 12.14326477 C113.46193714 13.65779361 124.77192838 15.15882879 136.08301109 16.65216523 C148.17764645 18.24907568 160.27099074 19.85559879 172.36396527 21.46503234 C175.82850622 21.92548463 179.29327556 22.38418317 182.75810051 22.84249306 C188.21326826 23.56457807 193.66753285 24.29315248 199.1211834 25.02660561 C201.11341073 25.29357246 203.10591755 25.55846381 205.09872818 25.82104111 C242.36802894 30.73704692 242.36802894 30.73704692 252.34141541 43.31001282 C262.76877082 58.10593608 262.17871893 72.33250838 259.82017517 89.55415344 C259.59309452 91.28272263 259.36715503 93.01144205 259.14224815 94.74029541 C258.52321908 99.47438948 257.88865273 104.20628825 257.25157619 108.93798256 C256.56509844 114.05811412 255.89338414 119.18018304 255.22021484 124.30207825 C254.04429926 133.23679818 252.86016135 142.17039761 251.67179871 151.10346985 C249.73587493 165.66421159 247.83132124 180.22899314 245.93077087 194.79438782 C242.90969007 217.93824117 239.87430216 241.0801768 236.82819176 264.2207489 C236.48468858 266.8304175 236.14119609 269.44008751 235.79771423 272.04975891 C235.62729193 273.34456366 235.45686963 274.6393684 235.28128302 275.97340965 C233.96000638 286.01546939 232.64365938 296.05816922 231.32868629 306.10105592 C229.8628784 317.29519983 228.39218256 328.48869378 226.91706473 339.68161535 C226.09967961 345.8847403 225.28433422 352.08811599 224.47430229 358.29220581 C223.72208283 364.05277943 222.96386543 369.81253212 222.20106888 375.5717144 C221.92435582 377.66881626 221.6497785 379.7662013 221.37757683 381.86389351 C216.56699287 418.90261242 216.56699287 418.90261242 202.94297791 429.84907532 C190.90496869 438.18643071 180.04917881 438.83212468 165.78282166 437.34516907 C165.09301208 437.27781555 164.40320251 437.21046204 163.69248962 437.1410675 C151.5672691 435.92939081 151.5672691 435.92939081 149.15593529 434.1335361 C147.34348719 431.77297223 147.1493635 429.98276985 146.76612854 427.03598404 C146.61570288 425.92805819 146.46527721 424.82013234 146.3102932 423.67863297 C146.15765825 422.45639079 146.00502331 421.2341486 145.84776306 419.97486877 C145.67580729 418.68023578 145.50385151 417.38560279 145.32668495 416.0517385 C144.8488688 412.45181001 144.38707876 408.84997752 143.92779636 405.24764419 C143.429905 401.36476681 142.91723393 397.48383924 142.40629578 393.60266113 C141.52232355 386.87248125 140.64764254 380.141146 139.77909851 373.40895844 C138.52109346 363.65883724 137.24798755 353.91073416 135.97099328 344.163084 C133.89671276 328.32707494 131.83313365 312.48969132 129.77696228 296.65132141 C127.78419153 281.30160355 125.78899828 265.9522063 123.78868103 250.60346985 C123.6657116 249.65988748 123.54274216 248.71630511 123.41604638 247.74412933 C122.07171452 237.42963282 120.7260562 227.11531022 119.37849426 216.8012352 C119.25982101 215.89291706 119.14114775 214.98459892 119.01887834 214.04875599 C118.54421558 210.41592237 118.06952474 206.78309244 117.59465003 203.15028653 C116.20731237 192.53700949 114.82409697 181.9232157 113.44850206 171.30840996 C112.58403975 164.63885664 111.71615698 157.96975444 110.84565496 151.30098674 C110.34437736 147.45954195 109.8448014 143.6178958 109.34983063 139.77563286 C108.89531239 136.24747496 108.43595524 132.71997983 107.9730041 129.19291887 C107.73032922 127.33460275 107.49270282 125.47562941 107.25535011 123.61662602 C104.62189278 103.67266105 101.06801337 85.34519058 84.15000916 72.31782532 C64.65522531 59.18245102 43.78165648 61.67157652 21.65782166 64.75141907 C19.80901605 64.9991841 17.96005386 65.24578322 16.11094666 65.49128723 C11.31040612 66.13149594 6.51194456 66.78607936 1.71385193 67.4443512 C-4.1536022 68.24672451 -10.02326457 69.03275501 -15.89274597 69.82013702 C-20.4483247 70.43139984 -25.00347313 71.04539184 -29.55751038 71.66804504 C-30.38848236 71.78098404 -31.21945435 71.89392303 -32.0756073 72.01028442 C-33.62536453 72.22096416 -35.17491938 72.4331402 -36.72422791 72.64709473 C-39.58388742 73.03435916 -42.32723199 73.34516907 -45.21717834 73.34516907 C-44.88399584 63.54960346 -43.76008277 53.86853341 -42.46717834 44.15766907 C-42.32248108 42.98301086 -42.17778381 41.80835266 -42.02870178 40.59809875 C-40.08985761 26.62667013 -35.38924153 15.64072984 -24.17420959 6.72016907 C-16.7251067 1.72436353 -8.87661658 -0.17471418 0 0 Z " fill="#FFFFFF" transform="translate(230.21717834472656,-0.3451690673828125)"/>
</svg>
